<?xml version="1.0" encoding="UTF-8" standalone="no"?>
<!-- Created with Inkscape (http://www.inkscape.org/) -->

<svg
   width="11.641667mm"
   height="11.641668mm"
   viewBox="0 0 11.641667 11.641668"
   version="1.1"
   id="svg1"
   xml:space="preserve"
   xmlns="http://www.w3.org/2000/svg"
   xmlns:svg="http://www.w3.org/2000/svg"><defs
     id="defs1" /><g
     id="layer1"
     transform="translate(-67.941532,-76.381696)"><g
       style="fill:none"
       id="g1"
       transform="matrix(0.26458333,0,0,0.26458333,67.94153,76.381695)"><path
         d="M 22,0 C 34.1503,0 44,9.84974 44,22 44,34.1503 34.1503,44 22,44 9.84974,44 0,34.1503 0,22 0,9.84974 9.84974,0 22,0 Z"
         fill="#d95b06"
         id="path1" /></g><g
       style="fill:none"
       id="g2"
       transform="matrix(0.26458333,0,0,0.26458333,69.657951,78.07887)"><path
         d="m 6.35902,5.13715 h 5.16664 l 2.5834,6.45831 -3.2292,1.9375 c 1.3833,2.8049 3.6534,5.075 6.4583,6.4584 l 1.9375,-3.2292 6.4584,2.5833 v 5.1667 c 0,0.6851 -0.2722,1.3422 -0.7567,1.8267 -0.4844,0.4845 -1.1415,0.7566 -1.8267,0.7566 -5.0384,-0.3062 -9.7906,-2.4458 -13.3599,-6.015 C 6.22147,17.51116 4.08188,12.75896 3.77569,7.72048 3.77569,7.03534 4.04786,6.37826 4.53233,5.89379 5.0168,5.40932 5.67388,5.13715 6.35902,5.13715 Z"
         stroke="#f5f5f5"
         stroke-width="3"
         stroke-linecap="round"
         stroke-linejoin="round"
         id="path1-4" /></g></g></svg>
